<svg xmlns="http://www.w3.org/2000/svg" viewBox="0 0 700 700">
  <path fill="#17131a" d="M150 390V205C150 74 237 18 350 18s200 56 200 187v185c-35-32-63-77-75-133-43 27-82 39-125 39s-82-12-125-39c-12 56-40 101-75 133Z"/>
  <path fill="#17131a" d="M150 205c-4 119-4 283 30 431h75c-22-137-23-270-9-390-32-12-66-25-96-41Zm400 0c4 119 4 283-30 431h-75c22-137 23-270 9-390 32-12 66-25 96-41Z"/>
  <path fill="#3b303e" d="M183 151c42-84 114-109 167-109-61 25-105 63-129 124l-38-15Zm334 0c-42-84-114-109-167-109 61 25 105 63 129 124l38-15Z" opacity=".7"/>
</svg>